<?xml version="1.0" encoding="UTF-8" standalone="no"?>
<svg
   xmlns:dc="http://purl.org/dc/elements/1.1/"
   xmlns:cc="http://creativecommons.org/ns#"
   xmlns:rdf="http://www.w3.org/1999/02/22-rdf-syntax-ns#"
   xmlns:svg="http://www.w3.org/2000/svg"
   xmlns="http://www.w3.org/2000/svg"
   xmlns:sodipodi="http://sodipodi.sourceforge.net/DTD/sodipodi-0.dtd"
   xmlns:inkscape="http://www.inkscape.org/namespaces/inkscape"
   width="236.41493mm"
   height="364.87726mm"
   viewBox="0 0 236.41493 364.87725"
   version="1.1"
   id="svg3138"
   inkscape:version="1.0.2 (1.0.2+r75+1)"
   sodipodi:docname="Kiem-ontwerp.svg">
  <defs
     id="defs3132">
    <rect
       x="-1415.5184"
       y="318.52676"
       width="14.471808"
       height="6.7552843"
       id="rect2938" />
    <rect
       x="-1415.5184"
       y="318.52676"
       width="14.471808"
       height="6.7552843"
       id="rect3949" />
    <rect
       x="-1415.5184"
       y="318.52676"
       width="14.471808"
       height="6.7552843"
       id="rect1636" />
    <rect
       x="-1415.5184"
       y="318.52676"
       width="14.471808"
       height="6.7552843"
       id="rect3952" />
    <rect
       x="-1415.5184"
       y="318.52676"
       width="14.471808"
       height="6.7552843"
       id="rect2904" />
    <rect
       x="-1415.5184"
       y="318.52676"
       width="14.471808"
       height="6.7552843"
       id="rect3955" />
  </defs>
  <sodipodi:namedview
     id="base"
     pagecolor="#ffffff"
     bordercolor="#666666"
     borderopacity="1.0"
     inkscape:pageopacity="0.0"
     inkscape:pageshadow="2"
     inkscape:zoom="0.35"
     inkscape:cx="454.16752"
     inkscape:cy="789.22866"
     inkscape:document-units="mm"
     inkscape:current-layer="layer1"
     inkscape:document-rotation="0"
     showgrid="false"
     fit-margin-top="20"
     fit-margin-left="20"
     fit-margin-right="20"
     fit-margin-bottom="20"
     lock-margins="true"
     inkscape:window-width="1920"
     inkscape:window-height="1002"
     inkscape:window-x="0"
     inkscape:window-y="41"
     inkscape:window-maximized="1" />
  <metadata
     id="metadata3135">
    <rdf:RDF>
      <cc:Work
         rdf:about="">
        <dc:format>image/svg+xml</dc:format>
        <dc:type
           rdf:resource="http://purl.org/dc/dcmitype/StillImage" />
        <dc:title></dc:title>
      </cc:Work>
    </rdf:RDF>
  </metadata>
  <g
     inkscape:label="Layer 1"
     inkscape:groupmode="layer"
     id="layer1"
     transform="translate(12.374152,148.31349)">
    <rect
       style="opacity:0.994456;fill:#1196bb;fill-opacity:1;stroke:none;stroke-width:0.20167;stroke-linejoin:round;stroke-miterlimit:4;stroke-dasharray:none;stroke-opacity:1;paint-order:markers fill stroke"
       id="rect1740"
       width="49.103733"
       height="32.26474"
       x="56.729694"
       y="164.29904" />
    <rect
       style="opacity:0.994456;fill:#5e95a4;fill-opacity:1;stroke:none;stroke-width:0.20167;stroke-linejoin:round;stroke-miterlimit:4;stroke-dasharray:none;stroke-opacity:1;paint-order:markers fill stroke"
       id="rect1744"
       width="49.103733"
       height="32.26474"
       x="105.83329"
       y="164.29904" />
    <rect
       style="opacity:0.994456;fill:#60a6b8;fill-opacity:1;stroke:none;stroke-width:0.20167;stroke-linejoin:round;stroke-miterlimit:4;stroke-dasharray:none;stroke-opacity:1;paint-order:markers fill stroke"
       id="rect1746"
       width="49.103733"
       height="32.26474"
       x="154.93704"
       y="164.29903" />
    <rect
       style="opacity:0.994456;fill:#b166a3;fill-opacity:1;stroke:none;stroke-width:0.201705;stroke-linejoin:round;stroke-miterlimit:4;stroke-dasharray:none;stroke-opacity:1;paint-order:markers fill stroke"
       id="rect1762"
       width="49.103733"
       height="32.26474"
       x="56.729694"
       y="132.03429" />
    <rect
       style="opacity:0.994456;fill:#a06a95;fill-opacity:1;stroke:#a06995;stroke-width:0.201705;stroke-linejoin:round;stroke-miterlimit:4;stroke-dasharray:none;stroke-opacity:0.996078;paint-order:markers fill stroke"
       id="rect1764"
       width="49.103733"
       height="32.26474"
       x="105.83329"
       y="132.03429" />
    <rect
       style="opacity:0.994456;fill:#9f7894;fill-opacity:1;stroke:none;stroke-width:0.201705;stroke-linejoin:round;stroke-miterlimit:4;stroke-dasharray:none;stroke-opacity:1;paint-order:markers fill stroke"
       id="rect1766"
       width="49.103733"
       height="32.26474"
       x="154.93704"
       y="132.03429" />
    <rect
       style="opacity:0.994456;fill:#8c407c;fill-opacity:1;stroke:none;stroke-width:0.201705;stroke-linejoin:round;stroke-miterlimit:4;stroke-dasharray:none;stroke-opacity:1;paint-order:markers fill stroke"
       id="rect1521"
       width="49.103733"
       height="32.26474"
       x="7.6259384"
       y="132.03429" />
    <rect
       style="opacity:0.994456;fill:#0a7e9c;fill-opacity:1;stroke:none;stroke-width:0.20167;stroke-linejoin:round;stroke-miterlimit:4;stroke-dasharray:none;stroke-opacity:1;paint-order:markers fill stroke"
       id="rect1523"
       width="49.103733"
       height="32.26474"
       x="7.6259384"
       y="164.29904" />
    <g
       id="g1720"
       transform="matrix(0.16207218,0,0,0.14831042,634.7503,214.95095)">
      <rect
         style="opacity:0.994456;fill:#5d8988;fill-opacity:1;stroke:none;stroke-width:1.301;stroke-linejoin:round;stroke-miterlimit:4;stroke-dasharray:none;stroke-opacity:1;paint-order:markers fill stroke"
         id="rect1542"
         width="302.97449"
         height="217.54871"
         x="-3263.4656"
         y="-776.62378" />
      <rect
         style="opacity:0.994456;fill:#459390;fill-opacity:1;stroke:none;stroke-width:1.301;stroke-linejoin:round;stroke-miterlimit:4;stroke-dasharray:none;stroke-opacity:1;paint-order:markers fill stroke"
         id="rect1544"
         width="302.97449"
         height="217.54871"
         x="-2960.4912"
         y="-776.62378" />
      <rect
         style="opacity:0.994456;fill:#2b9b97;fill-opacity:1;stroke:none;stroke-width:1.301;stroke-linejoin:round;stroke-miterlimit:4;stroke-dasharray:none;stroke-opacity:1;paint-order:markers fill stroke"
         id="rect1546"
         width="302.97449"
         height="217.54871"
         x="-3566.4402"
         y="-776.62378" />
      <rect
         style="opacity:0.994456;fill:#037672;fill-opacity:1;stroke:none;stroke-width:1.301;stroke-linejoin:round;stroke-miterlimit:4;stroke-dasharray:none;stroke-opacity:1;paint-order:markers fill stroke"
         id="rect1548"
         width="302.97449"
         height="217.54871"
         x="-3869.4146"
         y="-776.62378" />
    </g>
    <g
       id="g3863"
       transform="matrix(0.46752234,0,0,0.46752234,2095.9469,-160.00323)">
      <g
         id="g2993"
         transform="translate(0,-93.572544)">
        <g
           id="g2948"
           transform="matrix(1.2561787,0,0,1.2561787,569.17492,-49.821315)">
          <rect
             style="opacity:0.993245;fill:#8c407c;fill-opacity:0.996078;stroke:none;stroke-width:3.385;stroke-linejoin:miter;stroke-miterlimit:4;stroke-dasharray:none;stroke-dashoffset:0;stroke-opacity:0.996078;paint-order:markers fill stroke"
             id="rect2920"
             width="136.80917"
             height="161.41821"
             x="-3813.5105"
             y="332.53867" />
          <g
             id="g2936"
             transform="translate(0.92731224,-2.4771873)">
            <g
               id="g2932"
               transform="translate(-334.32048,-162.42023)">
              <g
                 id="g2930"
                 transform="translate(-2301.3528,424.87043)"
                 style="fill:#ffffff;fill-opacity:1">
                <text
                   xml:space="preserve"
                   style="font-style:normal;font-variant:normal;font-weight:normal;font-stretch:normal;font-size:47.5548px;line-height:0.85;font-family:'Noto Serif';-inkscape-font-specification:'Noto Serif';font-variant-ligatures:normal;font-variant-caps:normal;font-variant-numeric:normal;font-feature-settings:normal;text-align:start;letter-spacing:-0.842502px;word-spacing:0px;writing-mode:lr-tb;text-anchor:start;opacity:0.996912;fill:#ffffff;fill-opacity:1;stroke:none;stroke-width:5.24716"
                   x="-1162.3931"
                   y="210.83415"
                   id="text2926"><tspan
                     sodipodi:role="line"
                     id="tspan2922"
                     x="-1162.3931"
                     y="210.83415"
                     style="font-style:normal;font-variant:normal;font-weight:bold;font-stretch:normal;font-size:47.5548px;font-family:Ubuntu;-inkscape-font-specification:'Ubuntu Bold';fill:#ffffff;fill-opacity:1;stroke-width:5.24716">kiem</tspan></text>
                <text
                   xml:space="preserve"
                   id="text2928"
                   style="font-style:normal;font-variant:normal;font-weight:normal;font-stretch:normal;font-size:4.58611px;line-height:1.25;font-family:'Fira Sans';-inkscape-font-specification:'Fira Sans, Normal';font-variant-ligatures:normal;font-variant-caps:normal;font-variant-numeric:normal;font-feature-settings:normal;text-align:start;letter-spacing:0px;word-spacing:0px;writing-mode:lr-tb;white-space:pre;shape-inside:url(#rect2938);fill:#ffffff;fill-opacity:1;stroke:none;" />
              </g>
            </g>
            <path
               style="font-style:italic;font-variant:normal;font-weight:normal;font-stretch:normal;font-size:82.929px;line-height:0.85;font-family:Lato;-inkscape-font-specification:'Lato Italic';font-variant-ligatures:normal;font-variant-caps:normal;font-variant-numeric:normal;font-feature-settings:normal;text-align:start;letter-spacing:0px;word-spacing:0px;writing-mode:lr-tb;text-anchor:start;opacity:0.996912;fill:#000000;fill-opacity:0;stroke:#ffffff;stroke-width:4.77639;stroke-miterlimit:4;stroke-dasharray:none;stroke-opacity:0.996078"
               d="m -3771.2297,356.99575 c -1.7298,-0.0391 -3.3797,0.19223 -4.9498,0.69331 -2.0582,0.71278 -3.9098,1.87207 -5.555,3.47973 -1.6106,1.65259 -2.9739,3.75779 -4.0924,6.31484 -1.0787,2.56222 -1.8302,5.56677 -2.254,9.01403 -0.4372,3.56592 -0.4295,7.10631 0.03,10.62075 0.4876,3.55906 1.3774,6.94641 2.6705,10.16255 1.2941,3.21563 2.9346,6.23195 4.9212,9.04981 2.0261,2.8229 4.3536,5.32076 6.9828,7.49396 2.6289,2.17253 5.5264,3.95626 8.6937,5.35066 3.2018,1.43861 6.6058,2.37942 10.211,2.82228 1.2985,0.15956 2.5893,0.2636 3.8717,0.31198 -0.1547,2.09994 -0.2483,4.23156 -0.2545,6.39465 2.5834,0.72844 5.1674,1.13531 7.7514,1.22014 2.5495,0.12933 5.1321,0.0337 7.7468,-0.2873 3.6059,-0.44293 7.0093,-1.38443 10.2114,-2.82309 3.1669,-1.39432 6.0647,-3.17796 8.6935,-5.35066 2.6293,-2.17307 4.9565,-4.67026 6.9826,-7.4932 1.9867,-2.81784 3.627,-5.83499 4.9218,-9.05054 1.2929,-3.21617 2.1823,-6.6035 2.6703,-10.16257 0.453,-3.51443 0.4606,-7.05477 0.03,-10.62068 -0.4231,-3.44724 -1.1737,-6.4518 -2.2529,-9.01408 -1.118,-2.55708 -2.4827,-4.66232 -4.0934,-6.31476 -1.645,-1.6078 -3.4966,-2.7674 -5.5549,-3.4799 -2.0927,-0.66806 -4.3277,-0.85628 -6.7051,-0.56414 -2.1395,0.26281 -4.1537,0.89202 -6.0429,1.88806 -1.9276,1.00084 -3.6986,2.3046 -5.3112,3.91039 -1.6526,1.61062 -3.1534,3.39287 -4.498,5.61932 -1.2785,2.11646 -4.3228,7.70462 -7.2985,15.5527 -3.5979,-11.83001 -8.2429,-20.44018 -9.9042,-23.19144 -1.3444,-2.22642 -2.8464,-4.00937 -4.498,-5.62003 -1.6132,-1.60582 -3.3842,-2.90883 -5.3122,-3.90959 -1.8885,-0.99598 -3.9025,-1.62531 -6.0417,-1.88805 -0.5942,-0.0729 -1.1803,-0.11589 -1.7568,-0.12932 z"
               id="path2934" />
          </g>
        </g>
        <rect
           style="opacity:0.993245;fill:#8c407c;fill-opacity:0.996078;stroke:none;stroke-width:4.25216;stroke-linejoin:miter;stroke-miterlimit:4;stroke-dasharray:none;stroke-dashoffset:0;stroke-opacity:0.996078;paint-order:markers fill stroke"
           id="rect1617"
           width="171.85677"
           height="202.77013"
           x="-4221.2759"
           y="367.90668" />
        <g
           id="g1631"
           transform="matrix(1.2561787,0,0,1.2561787,570.33979,-52.933105)">
          <g
             id="g1627"
             transform="translate(-334.32048,-162.42023)">
            <g
               id="g1625"
               transform="translate(-2301.3528,424.87043)"
               style="fill:#ffffff;fill-opacity:1">
              <text
                 xml:space="preserve"
                 style="font-style:normal;font-variant:normal;font-weight:normal;font-stretch:normal;font-size:47.5548px;line-height:0.85;font-family:'Noto Serif';-inkscape-font-specification:'Noto Serif';font-variant-ligatures:normal;font-variant-caps:normal;font-variant-numeric:normal;font-feature-settings:normal;text-align:start;letter-spacing:-0.842502px;word-spacing:0px;writing-mode:lr-tb;text-anchor:start;opacity:0.996912;fill:#ffffff;fill-opacity:1;stroke:none;stroke-width:5.24716"
                 x="-1162.3931"
                 y="210.83415"
                 id="text1621"><tspan
                   sodipodi:role="line"
                   id="tspan1619"
                   x="-1162.3931"
                   y="210.83415"
                   style="font-style:normal;font-variant:normal;font-weight:bold;font-stretch:normal;font-size:47.5548px;font-family:Ubuntu;-inkscape-font-specification:'Ubuntu Bold';fill:#ffffff;fill-opacity:1;stroke-width:5.24716">kiem</tspan></text>
              <text
                 xml:space="preserve"
                 id="text1623"
                 style="font-style:normal;font-variant:normal;font-weight:normal;font-stretch:normal;font-size:4.58611px;line-height:1.25;font-family:'Fira Sans';-inkscape-font-specification:'Fira Sans, Normal';font-variant-ligatures:normal;font-variant-caps:normal;font-variant-numeric:normal;font-feature-settings:normal;text-align:start;letter-spacing:0px;word-spacing:0px;writing-mode:lr-tb;white-space:pre;shape-inside:url(#rect1636);fill:#ffffff;fill-opacity:1;stroke:none;" />
            </g>
          </g>
          <path
             style="font-style:italic;font-variant:normal;font-weight:normal;font-stretch:normal;font-size:82.929px;line-height:0.85;font-family:Lato;-inkscape-font-specification:'Lato Italic';font-variant-ligatures:normal;font-variant-caps:normal;font-variant-numeric:normal;font-feature-settings:normal;text-align:start;letter-spacing:0px;word-spacing:0px;writing-mode:lr-tb;text-anchor:start;opacity:0.996912;fill:#000000;fill-opacity:0;stroke:#ffffff;stroke-width:4.77639;stroke-miterlimit:4;stroke-dasharray:none;stroke-opacity:0.996078"
             d="m -3771.2297,356.99575 c -1.7298,-0.0391 -3.3797,0.19223 -4.9498,0.69331 -2.0582,0.71278 -3.9098,1.87207 -5.555,3.47973 -1.6106,1.65259 -2.9739,3.75779 -4.0924,6.31484 -1.0787,2.56222 -1.8302,5.56677 -2.254,9.01403 -0.4372,3.56592 -0.4295,7.10631 0.03,10.62075 0.4876,3.55906 1.3774,6.94641 2.6705,10.16255 1.2941,3.21563 2.9346,6.23195 4.9212,9.04981 2.0261,2.8229 4.3536,5.32076 6.9828,7.49396 2.6289,2.17253 5.5264,3.95626 8.6937,5.35066 3.2018,1.43861 6.6058,2.37942 10.211,2.82228 1.2985,0.15956 2.5893,0.2636 3.8717,0.31198 -0.1547,2.09994 -0.2483,4.23156 -0.2545,6.39465 2.5834,0.72844 5.1674,1.13531 7.7514,1.22014 2.5495,0.12933 5.1321,0.0337 7.7468,-0.2873 3.6059,-0.44293 7.0093,-1.38443 10.2114,-2.82309 3.1669,-1.39432 6.0647,-3.17796 8.6935,-5.35066 2.6293,-2.17307 4.9565,-4.67026 6.9826,-7.4932 1.9867,-2.81784 3.627,-5.83499 4.9218,-9.05054 1.2929,-3.21617 2.1823,-6.6035 2.6703,-10.16257 0.453,-3.51443 0.4606,-7.05477 0.03,-10.62068 -0.4231,-3.44724 -1.1737,-6.4518 -2.2529,-9.01408 -1.118,-2.55708 -2.4827,-4.66232 -4.0934,-6.31476 -1.645,-1.6078 -3.4966,-2.7674 -5.5549,-3.4799 -2.0927,-0.66806 -4.3277,-0.85628 -6.7051,-0.56414 -2.1395,0.26281 -4.1537,0.89202 -6.0429,1.88806 -1.9276,1.00084 -3.6986,2.3046 -5.3112,3.91039 -1.6526,1.61062 -3.1534,3.39287 -4.498,5.61932 -1.2785,2.11646 -4.3228,7.70462 -7.2985,15.5527 -3.5979,-11.83001 -8.2429,-20.44018 -9.9042,-23.19144 -1.3444,-2.22642 -2.8464,-4.00937 -4.498,-5.62003 -1.6132,-1.60582 -3.3842,-2.90883 -5.3122,-3.90959 -1.8885,-0.99598 -3.9025,-1.62531 -6.0417,-1.88805 -0.5942,-0.0729 -1.1803,-0.11589 -1.7568,-0.12932 z"
             id="path1629" />
        </g>
      </g>
      <g
         id="g2902"
         transform="matrix(1.2561787,0,0,1.2561787,329.7124,-144.37955)">
        <g
           id="g2898"
           transform="translate(-334.32048,-162.42023)" />
        <g
           id="g2918">
          <rect
             style="opacity:0.993245;fill:#000000;fill-opacity:0;stroke:#8b3f7c;stroke-width:3.385;stroke-linejoin:miter;stroke-miterlimit:4;stroke-dasharray:none;stroke-dashoffset:0;stroke-opacity:1;paint-order:markers fill stroke"
             id="rect2888"
             width="136.80917"
             height="161.41821"
             x="-4005.0657"
             y="259.74133"
             transform="translate(190.62776,75.274507)" />
          <g
             id="g2896"
             transform="translate(-2635.6733,262.4502)"
             style="fill:#8b3f7c;fill-opacity:0.992157">
            <text
               xml:space="preserve"
               style="font-style:normal;font-variant:normal;font-weight:normal;font-stretch:normal;font-size:47.5548px;line-height:0.85;font-family:'Noto Serif';-inkscape-font-specification:'Noto Serif';font-variant-ligatures:normal;font-variant-caps:normal;font-variant-numeric:normal;font-feature-settings:normal;text-align:start;letter-spacing:-0.842502px;word-spacing:0px;writing-mode:lr-tb;text-anchor:start;opacity:0.996912;fill:#8b3f7c;fill-opacity:0.992157;stroke:none;stroke-width:5.24716"
               x="-1162.3931"
               y="210.83415"
               id="text2892"><tspan
                 sodipodi:role="line"
                 id="tspan2890"
                 x="-1162.3931"
                 y="210.83415"
                 style="font-style:normal;font-variant:normal;font-weight:bold;font-stretch:normal;font-size:47.5548px;font-family:Ubuntu;-inkscape-font-specification:'Ubuntu Bold';fill:#8b3f7c;fill-opacity:0.992157;stroke-width:5.24716">kiem</tspan></text>
            <text
               xml:space="preserve"
               id="text2894"
               style="font-style:normal;font-variant:normal;font-weight:normal;font-stretch:normal;font-size:4.58611px;line-height:1.25;font-family:'Fira Sans';-inkscape-font-specification:'Fira Sans, Normal';font-variant-ligatures:normal;font-variant-caps:normal;font-variant-numeric:normal;font-feature-settings:normal;text-align:start;letter-spacing:0px;word-spacing:0px;writing-mode:lr-tb;white-space:pre;shape-inside:url(#rect2904);fill:#8b3f7c;fill-opacity:0.992157;stroke:none;" />
          </g>
          <path
             style="font-style:italic;font-variant:normal;font-weight:normal;font-stretch:normal;font-size:82.929px;line-height:0.85;font-family:Lato;-inkscape-font-specification:'Lato Italic';font-variant-ligatures:normal;font-variant-caps:normal;font-variant-numeric:normal;font-feature-settings:normal;text-align:start;letter-spacing:0px;word-spacing:0px;writing-mode:lr-tb;text-anchor:start;opacity:0.996912;fill:none;fill-opacity:0.992157;stroke:#8b3f7c;stroke-width:4.77639;stroke-miterlimit:4;stroke-dasharray:none;stroke-opacity:0.992157"
             d="m -3771.2297,356.99575 c -1.7298,-0.0391 -3.3797,0.19223 -4.9498,0.69331 -2.0582,0.71278 -3.9098,1.87207 -5.555,3.47973 -1.6106,1.65259 -2.9739,3.75779 -4.0924,6.31484 -1.0787,2.56222 -1.8302,5.56677 -2.254,9.01403 -0.4372,3.56592 -0.4295,7.10631 0.03,10.62075 0.4876,3.55906 1.3774,6.94641 2.6705,10.16255 1.2941,3.21563 2.9346,6.23195 4.9212,9.04981 2.0261,2.8229 4.3536,5.32076 6.9828,7.49396 2.6289,2.17253 5.5264,3.95626 8.6937,5.35066 3.2018,1.43861 6.6058,2.37942 10.211,2.82228 1.2985,0.15956 2.5893,0.2636 3.8717,0.31198 -0.1547,2.09994 -0.2483,4.23156 -0.2545,6.39465 2.5834,0.72844 5.1674,1.13531 7.7514,1.22014 2.5495,0.12933 5.1321,0.0337 7.7468,-0.2873 3.6059,-0.44293 7.0093,-1.38443 10.2114,-2.82309 3.1669,-1.39432 6.0647,-3.17796 8.6935,-5.35066 2.6293,-2.17307 4.9565,-4.67026 6.9826,-7.4932 1.9867,-2.81784 3.627,-5.83499 4.9218,-9.05054 1.2929,-3.21617 2.1823,-6.6035 2.6703,-10.16257 0.453,-3.51443 0.4606,-7.05477 0.03,-10.62068 -0.4231,-3.44724 -1.1737,-6.4518 -2.2529,-9.01408 -1.118,-2.55708 -2.4827,-4.66232 -4.0934,-6.31476 -1.645,-1.6078 -3.4966,-2.7674 -5.5549,-3.4799 -2.0927,-0.66806 -4.3277,-0.85628 -6.7051,-0.56414 -2.1395,0.26281 -4.1537,0.89202 -6.0429,1.88806 -1.9276,1.00084 -3.6986,2.3046 -5.3112,3.91039 -1.6526,1.61062 -3.1534,3.39287 -4.498,5.61932 -1.2785,2.11646 -4.3228,7.70462 -7.2985,15.5527 -3.5979,-11.83001 -8.2429,-20.44018 -9.9042,-23.19144 -1.3444,-2.22642 -2.8464,-4.00937 -4.498,-5.62003 -1.6132,-1.60582 -3.3842,-2.90883 -5.3122,-3.90959 -1.8885,-0.99598 -3.9025,-1.62531 -6.0417,-1.88805 -0.5942,-0.0729 -1.1803,-0.11589 -1.7568,-0.12932 z"
             id="path2900" />
        </g>
      </g>
      <g
         id="g3828">
        <text
           xml:space="preserve"
           style="font-style:normal;font-variant:normal;font-weight:normal;font-stretch:normal;font-size:37.4764px;line-height:1.25;font-family:'Fira Sans';-inkscape-font-specification:'Fira Sans, Normal';font-variant-ligatures:normal;font-variant-caps:normal;font-variant-numeric:normal;font-feature-settings:normal;text-align:start;letter-spacing:4.61663px;word-spacing:0px;writing-mode:lr-tb;text-anchor:start;opacity:0.996912;fill:#8b3f7c;fill-opacity:1;stroke:none;stroke-width:2.1622"
           x="-4427.6997"
           y="198.11139"
           id="text3100"><tspan
             sodipodi:role="line"
             id="tspan3098"
             x="-4427.6997"
             y="198.11139"
             style="font-style:normal;font-variant:normal;font-weight:500;font-stretch:normal;font-size:37.4764px;font-family:Ubuntu;-inkscape-font-specification:'Ubuntu Medium';font-variant-ligatures:normal;font-variant-caps:all-small-caps;font-variant-numeric:normal;font-variant-east-asian:normal;opacity:0.994456;fill:#8b3f7c;fill-opacity:1;stroke-width:2.1622"
             dx="4.2192421 0 -2.4109955 0 0 0 0 0 0 -2.4109955"
             dy="0"
             rotate="0 0 0 0 0 0 0 0 0 0 0">ADVISERING</tspan></text>
        <text
           xml:space="preserve"
           style="font-style:normal;font-variant:normal;font-weight:normal;font-stretch:normal;font-size:97.0139px;line-height:0.85;font-family:'Noto Serif';-inkscape-font-specification:'Noto Serif';font-variant-ligatures:normal;font-variant-caps:normal;font-variant-numeric:normal;font-feature-settings:normal;text-align:start;letter-spacing:-1.9632px;word-spacing:0px;writing-mode:lr-tb;text-anchor:start;opacity:0.996912;fill:#8b3f7c;fill-opacity:1;stroke:none;stroke-width:11.2503"
           x="-4424.9458"
           y="157.31975"
           id="text3104"><tspan
             sodipodi:role="line"
             id="tspan3102"
             x="-4424.9458"
             y="157.31975"
             style="font-style:normal;font-variant:normal;font-weight:bold;font-stretch:normal;font-size:97.0139px;font-family:Ubuntu;-inkscape-font-specification:'Ubuntu Bold';fill:#8b3f7c;fill-opacity:1;stroke-width:11.2503">kiem</tspan></text>
        <path
           style="font-style:italic;font-variant:normal;font-weight:normal;font-stretch:normal;font-size:82.929px;line-height:0.85;font-family:Lato;-inkscape-font-specification:'Lato Italic';font-variant-ligatures:normal;font-variant-caps:normal;font-variant-numeric:normal;font-feature-settings:normal;text-align:start;letter-spacing:0px;word-spacing:0px;writing-mode:lr-tb;text-anchor:start;opacity:0.996912;fill:#ffffff;fill-opacity:1;stroke:#8b3f7c;stroke-width:7.54293;stroke-miterlimit:4;stroke-dasharray:none;stroke-opacity:1"
           d="m -4170.5975,71.558902 c -2.118,-0.04791 -4.1376,0.23532 -6.0598,0.848791 -2.5198,0.872744 -4.7871,2.292031 -6.801,4.260346 -1.9719,2.023301 -3.6415,4.600777 -5.0105,7.73141 -1.3212,3.136997 -2.2409,6.815513 -2.7597,11.036049 -0.5354,4.365814 -0.5259,8.700402 0.029,13.003222 0.5969,4.35741 1.6863,8.50465 3.2694,12.44218 1.5845,3.93698 3.5925,7.62994 6.0253,11.07991 2.4805,3.45609 5.3303,6.5143 8.5489,9.17499 3.2187,2.65987 6.7666,4.84372 10.6441,6.5509 3.92,1.76136 8.0875,2.91324 12.5014,3.45542 1.5897,0.19533 3.1701,0.3227 4.74,0.38194 -0.1895,2.57099 -0.3037,5.1808 -0.3112,7.82912 3.1626,0.89184 6.3262,1.38999 9.49,1.49381 3.1217,0.15821 6.2836,0.0413 9.4849,-0.35173 4.4147,-0.54228 8.5814,-1.69502 12.5018,-3.45638 3.8773,-1.7071 7.4252,-3.8908 10.6439,-6.55092 3.2186,-2.66054 6.068,-5.7179 8.5487,-9.17406 2.4326,-3.44999 4.4408,-7.14391 6.0257,-11.08079 1.5831,-3.93761 2.6723,-8.0848 3.2695,-12.44221 0.5545,-4.30281 0.5638,-8.63736 0.029,-13.00317 -0.5182,-4.2205 -1.4374,-7.899052 -2.7586,-11.036085 -1.3686,-3.130704 -3.0393,-5.708163 -5.011,-7.731321 -2.0145,-1.968403 -4.281,-3.388155 -6.8013,-4.260471 -2.5624,-0.817936 -5.2985,-1.048376 -8.2094,-0.690712 -2.6192,0.321804 -5.0856,1.092119 -7.3977,2.31157 -2.3607,1.225332 -4.5287,2.821592 -6.5033,4.787564 -2.0234,1.971943 -3.8607,4.153983 -5.5071,6.879867 -1.5648,2.591259 -5.2924,9.432978 -8.9355,19.041518 -4.4052,-14.483769 -10.0917,-25.025312 -12.1259,-28.393732 -1.6463,-2.72592 -3.4847,-4.908782 -5.5072,-6.880743 -1.9748,-1.966044 -4.1428,-3.561374 -6.5035,-4.786617 -2.3124,-1.219361 -4.7777,-1.989891 -7.3969,-2.31157 -0.7279,-0.08956 -1.4453,-0.142115 -2.1509,-0.157846 z"
           id="path3106" />
      </g>
    </g>
  </g>
</svg>
