<svg xmlns="http://www.w3.org/2000/svg" baseProfile="tiny" width="425.979" height="254.05" stroke="#0082ca" stroke-miterlimit="10" xmlns:v="https://vecta.io/nano"><path fill="none" stroke-width="1.447" d="M297.854 124.406c2.717.382 6.837.273 11.175-.394 7.24-.23 9.98-.343 12.58.17 6.924 1.373 8.107 2.264 12.204 3.442 7.998 2.3 11.36 4.6 11.36 4.6s1.732 2.043 4.32 2.995c1.395 1.823 2.943 2.028 2.943 2.028s3.758.88 4.364 2.42c.358 1.444-1.844 2.875-3.023 3.86s-3.248 3.375-3.686 4.393c0 .586.146.7.64 1.056l5.684 4.19s3.143 2.3 2.092 4c-1.048 1.46-3.192-.466-4.926-.588s-24.537 3.97-27.575 4.305-8.895.506-17.116.216c-10.35 3.014-50.902 9.875-55.245 9.033 0 0 1.92 20.88-3.724 24.653-4.953 3.31-10.697 4.915-10.697 4.915-1.942 1.44-11.947 19.655-11.947 19.655s-12.66-2.654-18.398-7.662-5.83-15.924-5.83-15.924 21.15-18.417 22.974-24.44c-2.114-1.253-11.767-1.093-20.792-2.944-7.457-1.527-14.407-2.73-17.975-2.672-.874.63-8.997 6.85-11.913 8.356-1.424.503-4.72 1.666-8.724.538s-8.06-4.587-7.88-6.396 7.074-7.64 7.074-7.64-35.303-5.357-41.923-5.3c-2.76 1.497-66.04 28.646-75.004 28.016-4.945-2.4 28.97-12.548 48.05-39.795 2.673-4.327-20.115-23.445-19.55-24.834s40.73 21.546 46.884 22.948 39.782-3.22 48.623-9.383c0 0-12.595-6.918-11.362-8.15s27.127-14.928 29.908-15.237 16.197 10.267 16.197 10.267-35.862-74.738-59.786-91.356c-.003 0 97.26 6.722 150.005 96.668z"/><path fill="#0082ca" stroke-width="1.93" d="M327.15 140.06a4.41 4.41 0 0 1 1.594-3.404c.336-.282 1.426 4.41 2.24 4.41h.482c.73 0 .388-5.438.73-5.438 2.45 0 3.815 1.986 3.815 4.433s-1.984 4.43-4.434 4.43c-2.444-.001-4.427-1.987-4.427-4.43z"/><g fill="none"><path stroke-width=".483" d="M323.438 140.06c0-4.5 3.645-8.146 8.142-8.146s8.146 3.647 8.146 8.146-3.645 8.143-8.146 8.143-8.142-3.647-8.142-8.143z"/><path stroke-width="1.447" d="M297.854 124.406S258.527 136.34 263.01 150.7l-27.166 4.188-28.212-35.796"/><path stroke-width=".483" d="M315.874 161.243s-28.313-20.292-6.846-37.23"/><path d="M187.56 165.713s-12.824-3.7-21.75-5.14m60.213 10.757s24.817-1.545 27.62-1.195M172.9 132.213s4.986-2.122 13.302-3.493c5.74-.944 13.146-1.244 20.955-2.473 1.666-.264 3.344-.567 5.032-.93m25.408 76.443c4.18-3.46 3.6-22.3 3.915-31.053m-117.245-29.1s-19.548-3.86-19.548 4.067 19.17 9.6 19.17 9.6" stroke-width="1.447"/><path d="M184.235 111.896s20.05 11.997 22.342 14.35m-26.04-12.518s15.173 9.232 20.333 13.348m-23.65-11.66s10.4 5.806 17.408 12.297m-20.468-10.71s8.286 4.68 14.9 11.307m-18.44-9.434s9.016 5.122 14.175 10.085m-17.318-8.388s8.592 4.546 13.363 9.35m-16.2-7.453s7.903 4.337 11.938 8.458m11.162-20.7s19.444 11.662 23.423 15.288m81.287.72c-15.36-29.378-67.303-77.492-130.853-84.66m126.443 86.126c-20.2-32.527-77.973-73.846-117.43-73.846m113.25 75.852c-16.228-21.926-64.38-64.03-106.057-64.817m84.86 83.057s-12.246-3.116-34.06-2.107m35.042-1.363s-23.82-8.066-42.58-8.06m44.356 5.366s-28.076-15.824-52.73-15.824m54.943 13.52c-8.585-7.016-45.263-24.235-61.907-24.235M280.26 131.4c-29.357-33.023-75.13-55.94-95.463-55.94m85.55 61.823c-19.265-16.04-50.907-31.573-69.475-31.573m-6.242-10.46c25.02 0 58.202 22.194 78.905 39.874m3.32-1.946c-14.423-14.857-60.164-47.175-86.6-47.175m-74.436 54.653L81.974 123.92m28.426 17.052L88.87 130.93m18.073 11.158l-12.403-4.635m2.584 5.467l7.9 1.174s34.28 4.113 54.285 2.7c19.942-1.398 22-4.348 31.388-5.828 9.003-1.42 24.435-3.148 31.88-2.9m-103.74 16.454l-65.63 24.408m61.274-25.436l-43.5 14.652M110.8 152.2l-30.572 9.04m27.444-10.754L86.58 155.55m19.202-6.875l-14.364 1.8m13.432-3.758h-10.3m260.46-8.56c-1.754-.13-3.544.8-4.647 1.904-1.42 1.417-5.32 6.752-5.32 7.866s5.454 7.136 9.367 8.83M170.228 161.4c-2.186 4.322-9.38 10.052-9.38 10.052m13.815-9.075c-2.748 4.876-10.12 11.703-10.12 11.703m13.872-10.927c-.948 4.633-8.97 11.926-8.97 11.926m13.312-10.98c-1.228 4.892-7.414 9.98-7.414 9.98m54.33-3.125c-3.76 9.877-25.45 32.54-25.45 32.54m28.303-32.54c-4.542 15.028-24.894 39.45-24.894 39.45M235.6 170.77c-2.076 16.235-21.04 44.418-21.04 44.418m24.494-44.48c0 22.42-17.814 47.026-17.814 47.026m23.138-47.407s1.337 16.586-1.23 27.98m4.146-28.103s1.408 13.887 0 26.148m3.276-26.27s1.8 17.977.3 23.8m20.654-57.458c11.28-.906 11.967-.865 29.688.13" stroke-width=".483"/></g></svg>