<svg xmlns="http://www.w3.org/2000/svg" width="150" height="102.75" viewBox="0 0 150 102.75">
  <g transform="matrix(1.25 0 0 1.375473 -132.173462 -158.727859)" stroke="#000">
    <path fill="none" stroke-width=".558"
      d="M202.034 153.062c1.046.148 2.632.106 4.3-.152l4.842.066c2.665.53 3.12.876 4.697 1.33 3.078.9 4.372 1.78 4.372 1.78a4.45 4.45 0 0 0 1.663 1.158c.537.705 1.133.784 1.133.784s1.446.34 1.68.936c.138.558-.7 1.112-1.164 1.493s-1.25 1.305-1.42 1.7c0 .227.056.27.246.408l2.188 1.62s1.2.9.805 1.547c-.403.565-1.23-.18-1.896-.227s-9.444 1.535-10.614 1.665-3.424.196-6.588.083c-3.984 1.166-19.592 3.82-21.264 3.494 0 0 .74 8.076-1.433 9.535-1.906 1.28-4.117 1.9-4.117 1.9-.747.557-4.598 7.602-4.598 7.602s-4.873-1.026-7.08-2.963-2.244-6.16-2.244-6.16 8.14-7.123 8.843-9.452c-.814-.485-4.53-.423-8.003-1.14-2.87-.59-5.545-1.056-6.92-1.033-.336.244-3.463 2.65-4.585 3.232-.548.195-1.817.644-3.358.208s-3.102-1.774-3.033-2.474 2.723-2.955 2.723-2.955-13.588-2.072-16.136-2.05c-1.062.58-25.42 11.08-28.87 10.835-1.903-.928 11.15-4.853 18.495-15.39 1.03-1.674-7.742-9.068-7.525-9.605s15.677 8.333 18.046 8.875 15.312-1.245 18.715-3.63c0 0-4.848-2.676-4.373-3.152s10.44-5.774 11.512-5.893 6.234 3.97 6.234 3.97-13.803-28.906-23.012-35.333c-.001 0 37.436 2.6 57.737 37.387z"
      stroke-miterlimit="10" />
    <path stroke-width=".745"
      d="M213.3 159.116a1.697 1.706 0 0 1 .614-1.317c.13-.11.55 1.706.862 1.706h.186c.28 0 .15-2.103.28-2.103.943 0 1.468.768 1.468 1.715a1.71 1.71 0 0 1-1.707 1.713 1.71 1.71 0 0 1-1.704-1.713z" />
    <g fill="none">
      <path
        d="M211.88 159.116c0-1.74 1.403-3.15 3.134-3.15s3.135 1.41 3.135 3.15-1.403 3.15-3.135 3.15-3.134-1.41-3.134-3.15z"
        stroke-width=".186" />
      <path d="M202.034 153.062s-15.137 4.616-13.412 10.17l-10.456 1.62-10.86-13.844" stroke-width=".558" />
      <path d="M208.97 167.31s-10.898-7.848-2.635-14.4" stroke-width=".186" />
      <path
        d="M159.582 169.038l-8.372-1.988m23.176 4.16s9.552-.598 10.63-.462M153.94 156.08s1.92-.82 5.12-1.35l8.066-.956a35.84 35.84 0 0 0 1.937-.36m9.78 29.565c1.61-1.338 1.386-8.625 1.507-12m-45.128-11.255s-7.524-1.493-7.524 1.573 7.38 3.713 7.38 3.713"
        stroke-width=".558" />
      <path
        d="M158.302 148.224s7.717 4.64 8.6 5.55m-10.023-4.84s5.84 3.57 7.826 5.162m-9.103-4.5s4.003 2.246 6.7 4.756m-7.878-4.142s3.19 1.8 5.735 4.373m-7.098-3.65s3.47 1.98 5.456 3.9m-6.666-3.244s3.307 1.758 5.143 3.616m-6.235-2.883s3.042 1.677 4.595 3.27m4.296-8.006s7.484 4.5 9.016 5.913m31.288.278c-5.912-11.362-25.905-29.97-50.366-32.743m48.668 33.3c-7.775-12.58-30.012-28.56-45.2-28.56m43.6 29.337c-6.246-8.48-24.78-24.764-40.822-25.07m32.663 32.123s-4.714-1.205-13.1-.815m13.488-.527s-9.168-3.12-16.39-3.117m17.073 2.075s-10.807-6.12-20.296-6.12m21.148 5.23c-3.304-2.714-17.422-9.373-23.828-9.373m28.688 6.248c-11.3-12.772-28.918-21.635-36.744-21.635m32.928 23.91c-7.415-6.204-19.594-12.21-26.74-12.21m-2.403-4.046c9.63 0 22.402 8.584 30.37 15.422m1.278-.753c-5.55-5.746-23.157-18.245-33.333-18.245m-28.65 21.138l-13.027-6.473m10.94 6.595l-8.287-3.884m6.956 4.315l-4.774-1.793m.995 2.114l3.04.454s13.194 1.59 20.894 1.044c7.676-.54 8.468-1.682 12.08-2.254 3.465-.55 9.405-1.218 12.27-1.122m-39.93 6.364l-25.26 9.44m23.584-9.838l-16.743 5.667m15.326-6.167l-11.767 3.496m10.563-4.16l-8.118 1.96m7.39-2.66l-5.53.696m5.17-1.453h-3.964m100.252-3.31c-.675-.05-1.364.31-1.79.736-.547.548-2.048 2.61-2.048 3.042s2.1 2.76 3.605 3.415M152.9 167.37c-.84 1.672-3.6 3.888-3.6 3.888m5.317-3.5c-1.058 1.886-3.895 4.526-3.895 4.526m5.34-4.226c-.365 1.792-3.453 4.613-3.453 4.613m5.124-4.247c-.473 1.892-2.854 3.86-2.854 3.86m20.912-1.21c-1.447 3.82-9.796 12.585-9.796 12.585m10.894-12.585c-1.748 5.812-9.582 15.258-9.582 15.258m10.765-15.33c-.8 6.28-8.098 17.18-8.098 17.18m9.428-17.203c0 8.67-6.857 18.188-6.857 18.188m8.906-18.335s.515 6.415-.473 10.822m1.596-10.87s.542 5.37 0 10.113m1.26-10.16s.693 6.953.115 9.205m7.95-22.223c4.342-.35 4.606-.335 11.427.05"
        stroke-width=".186" />
    </g>
  </g>
</svg>